<svg id="Isolation_Mode" data-name="Isolation Mode" xmlns="http://www.w3.org/2000/svg" viewBox="0 0 112.348 107.595"><defs><style>.cls-1{fill:#6366f1;}.cls-2{fill:#fff;}.cls-3{fill:#d846ef;}</style></defs><title>features-icon-3</title><g id="_Group_" data-name="&lt;Group&gt;"><path id="_Path_" data-name="&lt;Path&gt;" class="cls-1" d="M106.434,59.8L96.124,67.742,99.8,80.22a7.581,7.581,0,0,1-7.067,9.72l-13.009.354-4.348,12.252a7.581,7.581,0,0,1-11.435,3.716L53.217,98.9l-10.725,7.361a7.582,7.582,0,0,1-11.435-3.716L26.709,90.293,13.7,89.939a7.582,7.582,0,0,1-7.066-9.721l3.675-12.477L0,59.8A7.581,7.581,0,0,1,0,47.79l10.309-7.937L6.635,27.376A7.581,7.581,0,0,1,13.7,17.655L26.709,17.3,31.057,5.05A7.582,7.582,0,0,1,42.492,1.334L53.217,8.7,63.942,1.334A7.581,7.581,0,0,1,75.377,5.05L79.724,17.3l13.009,0.354A7.581,7.581,0,0,1,99.8,27.377L96.124,39.854l10.309,7.936A7.581,7.581,0,0,1,106.434,59.8Z" transform="translate(2.957)"/><circle id="_Path_2" data-name="&lt;Path&gt;" class="cls-2" cx="56.174" cy="53.798" r="29.938"/><circle id="_Path_3" data-name="&lt;Path&gt;" class="cls-3" cx="56.174" cy="53.798" r="21.355"/></g></svg>