<svg id="Layer_1" data-name="Layer 1" xmlns="http://www.w3.org/2000/svg" viewBox="0 0 161.368 162.739"><defs><style>.cls-1{fill:#6366f1;}.cls-2{fill:#7f85ef;}.cls-3{fill:#d846ef;}.cls-4{fill:#db62f4;}</style></defs><title>features-icon-1</title><path id="_Compound_Path_" data-name="&lt;Compound Path&gt;" class="cls-1" d="M80.653,1.439A80.65,80.65,0,1,0,161.3,82.088,80.746,80.746,0,0,0,80.653,1.439Zm0,144.27a63.621,63.621,0,1,1,63.618-63.62A63.7,63.7,0,0,1,80.652,145.709Z"/><path id="_Compound_Path_2" data-name="&lt;Compound Path&gt;" class="cls-2" d="M144.763,82.088A64.113,64.113,0,1,0,80.652,146.2,64.184,64.184,0,0,0,144.763,82.088ZM80.652,140.067a57.978,57.978,0,1,1,57.976-57.978A58.046,58.046,0,0,1,80.652,140.067Z"/><g id="_Group_" data-name="&lt;Group&gt;"><path id="_Path_" data-name="&lt;Path&gt;" class="cls-3" d="M141.656,76.073C167.609,50.12,160.468.9,160.468,0.9L66.482,94.886S115.7,102.027,141.656,76.073Z"/><path id="_Path_2" data-name="&lt;Path&gt;" class="cls-4" d="M85.295,19.712C59.341,45.666,66.482,94.886,66.482,94.886L160.468,0.9S111.247-6.241,85.295,19.712Z"/></g></svg>