<svg id="Layer_1" data-name="Layer 1" xmlns="http://www.w3.org/2000/svg" viewBox="0 0 77.362 75.183"><defs><style>.cls-1{fill:#d846ef;}.cls-2{fill:#fff;}.cls-3{fill:#231f20;opacity:0.3;}.cls-4{fill:#6366f1;}</style></defs><title>features-icon-2</title><g id="_Group_" data-name="&lt;Group&gt;"><path id="_Path_" data-name="&lt;Path&gt;" class="cls-1" d="M77.362,6.106v26.7a6.106,6.106,0,0,1-6.106,6.106H68.443v14.5a0.689,0.689,0,0,1-1.218.442L51.749,38.915H19.882a6.106,6.106,0,0,1-6.106-6.106V6.106A6.106,6.106,0,0,1,19.882,0H71.256A6.106,6.106,0,0,1,77.362,6.106Z"/><path id="_Path_2" data-name="&lt;Path&gt;" class="cls-2" d="M70.755,13.195H41.177a1.623,1.623,0,0,1-1.623-1.623h0a1.623,1.623,0,0,1,1.623-1.623H70.755a1.623,1.623,0,0,1,1.623,1.623h0A1.623,1.623,0,0,1,70.755,13.195Z"/><path id="_Path_3" data-name="&lt;Path&gt;" class="cls-2" d="M70.755,21.273H41.177a1.623,1.623,0,0,1-1.623-1.623h0a1.623,1.623,0,0,1,1.623-1.623H70.755a1.623,1.623,0,0,1,1.623,1.623h0A1.623,1.623,0,0,1,70.755,21.273Z"/><path id="_Path_4" data-name="&lt;Path&gt;" class="cls-2" d="M70.755,29.351H51.575a1.623,1.623,0,0,1-1.623-1.623h0a1.623,1.623,0,0,1,1.623-1.623h19.18a1.623,1.623,0,0,1,1.623,1.623h0A1.623,1.623,0,0,1,70.755,29.351Z"/><g id="_Group_2" data-name="&lt;Group&gt;"><path id="_Path_5" data-name="&lt;Path&gt;" class="cls-1" d="M17.661,75.039L13.5,72.921a0.276,0.276,0,0,0-.258,0l-4.1,2.225a0.277,0.277,0,0,1-.405-0.287l0.729-4.609a0.277,0.277,0,0,0-.083-0.244L6,66.8a0.277,0.277,0,0,1,.147-0.474l4.609-.731a0.277,0.277,0,0,0,.207-0.154l2.011-4.211a0.277,0.277,0,0,1,.5-0.006l2.119,4.158a0.277,0.277,0,0,0,.211.149l4.627,0.611a0.277,0.277,0,0,1,.16.47l-3.3,3.3a0.278,0.278,0,0,0-.076.246l0.848,4.589A0.277,0.277,0,0,1,17.661,75.039Z"/><path id="_Path_6" data-name="&lt;Path&gt;" class="cls-1" d="M34.468,75.039L30.31,72.921a0.277,0.277,0,0,0-.258,0l-4.1,2.225a0.277,0.277,0,0,1-.405-0.287l0.729-4.609a0.277,0.277,0,0,0-.083-0.244L22.807,66.8a0.277,0.277,0,0,1,.147-0.474l4.609-.731a0.277,0.277,0,0,0,.207-0.154l2.011-4.211a0.277,0.277,0,0,1,.5-0.006L32.4,65.376a0.277,0.277,0,0,0,.211.149l4.627,0.611a0.277,0.277,0,0,1,.16.47l-3.3,3.3a0.278,0.278,0,0,0-.076.246l0.848,4.589A0.277,0.277,0,0,1,34.468,75.039Z"/><path id="_Path_7" data-name="&lt;Path&gt;" class="cls-1" d="M51.276,75.039l-4.158-2.118a0.277,0.277,0,0,0-.258,0l-4.1,2.225a0.277,0.277,0,0,1-.405-0.287l0.729-4.609A0.277,0.277,0,0,0,43,70.009L39.615,66.8a0.277,0.277,0,0,1,.147-0.474l4.609-.731a0.277,0.277,0,0,0,.206-0.154l2.011-4.211a0.277,0.277,0,0,1,.5-0.006l2.12,4.158a0.277,0.277,0,0,0,.21.149l4.627,0.611a0.277,0.277,0,0,1,.16.47l-3.3,3.3a0.278,0.278,0,0,0-.076.246l0.848,4.589A0.277,0.277,0,0,1,51.276,75.039Z"/><path id="_Path_8" data-name="&lt;Path&gt;" class="cls-1" d="M68.084,75.039l-4.158-2.118a0.277,0.277,0,0,0-.258,0l-4.1,2.225a0.277,0.277,0,0,1-.405-0.287l0.729-4.609a0.277,0.277,0,0,0-.083-0.244L56.423,66.8a0.277,0.277,0,0,1,.147-0.474l4.609-.731a0.277,0.277,0,0,0,.206-0.154L63.4,61.225a0.277,0.277,0,0,1,.5-0.006l2.12,4.158a0.277,0.277,0,0,0,.21.149l4.627,0.611a0.277,0.277,0,0,1,.16.47l-3.3,3.3a0.277,0.277,0,0,0-.076.246l0.848,4.589A0.277,0.277,0,0,1,68.084,75.039Z"/></g><path id="_Path_9" data-name="&lt;Path&gt;" class="cls-3" d="M45.625,7.673H13.776V32.809a6.106,6.106,0,0,0,6.106,6.106h31.85V13.779A6.106,6.106,0,0,0,45.625,7.673Z"/><path id="_Path_10" data-name="&lt;Path&gt;" class="cls-4" d="M0,13.779v26.7a6.106,6.106,0,0,0,6.106,6.106H8.919v14.5a0.689,0.689,0,0,0,1.218.442L25.613,46.587H43.855a6.106,6.106,0,0,0,6.106-6.106v-26.7a6.106,6.106,0,0,0-6.106-6.106H6.106A6.106,6.106,0,0,0,0,13.779Z"/><path id="_Path_11" data-name="&lt;Path&gt;" class="cls-2" d="M39.769,19.392H10.192a1.623,1.623,0,0,1-1.623-1.623h0a1.623,1.623,0,0,1,1.623-1.623H39.769a1.623,1.623,0,0,1,1.623,1.623h0A1.623,1.623,0,0,1,39.769,19.392Z"/><path id="_Path_12" data-name="&lt;Path&gt;" class="cls-2" d="M39.769,27.47H10.192a1.623,1.623,0,0,1-1.623-1.623h0a1.623,1.623,0,0,1,1.623-1.623H39.769a1.623,1.623,0,0,1,1.623,1.623h0A1.623,1.623,0,0,1,39.769,27.47Z"/><path id="_Path_13" data-name="&lt;Path&gt;" class="cls-2" d="M39.769,35.549H20.59a1.623,1.623,0,0,1-1.623-1.623h0A1.623,1.623,0,0,1,20.59,32.3h19.18a1.623,1.623,0,0,1,1.623,1.623h0A1.623,1.623,0,0,1,39.769,35.549Z"/></g></svg>