<svg id="Layer_1" data-name="Layer 1" xmlns="http://www.w3.org/2000/svg" xmlns:xlink="http://www.w3.org/1999/xlink" viewBox="0 0 156.505 50"><defs><style>.cls-1{fill:url(#linear-gradient);}.cls-2{fill:#fff;}</style><linearGradient id="linear-gradient" x1="0.042" y1="773.122" x2="57.645" y2="773.122" gradientTransform="translate(-0.042 -748.122)" gradientUnits="userSpaceOnUse"><stop offset="0" stop-color="#6366f1"/><stop offset="1" stop-color="#d846ef"/></linearGradient></defs><title>logo-negative</title><path class="cls-1" d="M56.714,16.478C54.258,8.253,46.686,4.108,40.2,6.756,34.109,9.247,30.193,9.628,22.575,3.578,14.468-2.856-.05-1.427,0,14.6,0.064,35.016,9.284,42.495,14.758,45.978c11.706,7.449,28.107,3.619,34.849-3.9C56.227,34.7,59.241,24.948,56.714,16.478Z" transform="translate(0 0)"/><path class="cls-2" d="M70.3,35.749V8.654H76V31.025H87.558v4.723H70.3Z" transform="translate(0 0)"/><path class="cls-2" d="M100.358,36.145a10.234,10.234,0,0,1-5.3-1.316,8.872,8.872,0,0,1-3.441-3.678,11.856,11.856,0,0,1-1.21-5.483,11.921,11.921,0,0,1,1.21-5.51,8.878,8.878,0,0,1,3.441-3.68,11.314,11.314,0,0,1,10.592,0,8.877,8.877,0,0,1,3.441,3.678,11.921,11.921,0,0,1,1.211,5.51,11.856,11.856,0,0,1-1.211,5.483,8.871,8.871,0,0,1-3.441,3.678A10.235,10.235,0,0,1,100.358,36.145Zm0.024-4.367a3.453,3.453,0,0,0,2.329-.8,4.919,4.919,0,0,0,1.414-2.189,9.65,9.65,0,0,0,.48-3.162,9.654,9.654,0,0,0-.48-3.162,4.972,4.972,0,0,0-1.414-2.2,3.437,3.437,0,0,0-2.329-.807,3.532,3.532,0,0,0-2.362.807,4.892,4.892,0,0,0-1.434,2.2,9.654,9.654,0,0,0-.48,3.162,9.65,9.65,0,0,0,.48,3.162,4.841,4.841,0,0,0,1.434,2.189A3.548,3.548,0,0,0,100.382,31.778Z" transform="translate(0 0)"/><path class="cls-2" d="M123.065,43.792a13.006,13.006,0,0,1-4.664-.747,7.8,7.8,0,0,1-3.086-2.031,6.231,6.231,0,0,1-1.486-2.883l5.183-.7a3.4,3.4,0,0,0,.752,1.137,3.683,3.683,0,0,0,1.361.854,5.84,5.84,0,0,0,2.073.324,4.9,4.9,0,0,0,3.02-.893,3.493,3.493,0,0,0,1.191-2.983V32.15h-0.238a5.311,5.311,0,0,1-1.1,1.6,5.54,5.54,0,0,1-1.894,1.231,7.249,7.249,0,0,1-2.764.476,8.184,8.184,0,0,1-4.138-1.065,7.457,7.457,0,0,1-2.959-3.268,12.441,12.441,0,0,1-1.1-5.576,13.219,13.219,0,0,1,1.119-5.768,8.052,8.052,0,0,1,2.981-3.466,7.615,7.615,0,0,1,4.084-1.151,6.3,6.3,0,0,1,2.842.575,5.624,5.624,0,0,1,1.849,1.429,7.836,7.836,0,0,1,1.085,1.674h0.211V15.428h5.567V35.947a7.2,7.2,0,0,1-1.265,4.34,7.645,7.645,0,0,1-3.492,2.626A13.912,13.912,0,0,1,123.065,43.792Zm0.119-12.568a3.806,3.806,0,0,0,2.3-.682,4.279,4.279,0,0,0,1.448-1.958,8.3,8.3,0,0,0,.506-3.063,8.717,8.717,0,0,0-.5-3.1,4.535,4.535,0,0,0-1.451-2.043,4.006,4.006,0,0,0-4.632.02,4.593,4.593,0,0,0-1.435,2.07,8.84,8.84,0,0,0-.486,3.056,8.394,8.394,0,0,0,.494,3.036,4.293,4.293,0,0,0,1.433,1.972A3.805,3.805,0,0,0,123.184,31.224Z" transform="translate(0 0)"/><path class="cls-2" d="M146.552,36.145a10.236,10.236,0,0,1-5.3-1.316,8.874,8.874,0,0,1-3.441-3.678,11.856,11.856,0,0,1-1.21-5.483,11.921,11.921,0,0,1,1.21-5.51,8.88,8.88,0,0,1,3.447-3.68,11.314,11.314,0,0,1,10.592,0,8.876,8.876,0,0,1,3.442,3.678,11.933,11.933,0,0,1,1.21,5.51,11.868,11.868,0,0,1-1.21,5.483,8.87,8.87,0,0,1-3.442,3.678A10.234,10.234,0,0,1,146.552,36.145Zm0.026-4.365a3.456,3.456,0,0,0,2.33-.8,4.919,4.919,0,0,0,1.414-2.189,9.65,9.65,0,0,0,.48-3.162,9.654,9.654,0,0,0-.48-3.162,4.972,4.972,0,0,0-1.414-2.2,3.441,3.441,0,0,0-2.33-.807,3.53,3.53,0,0,0-2.361.807,4.888,4.888,0,0,0-1.435,2.2,9.654,9.654,0,0,0-.48,3.162,9.65,9.65,0,0,0,.48,3.162,4.837,4.837,0,0,0,1.436,2.187,3.547,3.547,0,0,0,2.361.8h0v0Z" transform="translate(0 0)"/></svg>